<svg id="Layer_1" data-name="Layer 1" xmlns="http://www.w3.org/2000/svg" xmlns:xlink="http://www.w3.org/1999/xlink" viewBox="0 0 512 512"><defs><style>.cls-1{fill:none;stroke:#fff;stroke-miterlimit:10;stroke-width:12px;filter:url(#luminosity-invert-noclip);}.cls-2{mask:url(#mask);}.cls-3{fill:#231f20;}</style><filter id="luminosity-invert-noclip" x="12.79" y="72.27" width="485.45" height="353.96" filterUnits="userSpaceOnUse" color-interpolation-filters="sRGB"><feColorMatrix values="-1 0 0 0 1 0 -1 0 0 1 0 0 -1 0 1 0 0 0 1 0" result="invert"/><feFlood flood-color="#fff" result="bg"/><feBlend in="invert" in2="bg"/></filter><mask id="mask" x="12.79" y="72.27" width="485.45" height="353.96" maskUnits="userSpaceOnUse"><path class="cls-1" d="M277.46,109.38c-10.75,10.88-60.7,63.76-59.13,144.74,1.47,76.2,47.58,125.51,59.13,137.2"/></mask></defs><title>bc-logo2</title><g class="cls-2"><path class="cls-3" d="M55.76,72.5h84.31q71.07,0,103.47,22.87t32.4,65.44q0,28.17-13.59,49T223,237.64a88.2,88.2,0,0,1,36.82,12.89,73.66,73.66,0,0,1,25.66,27.41q9.29,17,9.29,38.68,0,34.08-13.59,58.14t-46,37.65Q202.78,426,148.2,426H12.79V72.5ZM177.81,205.65q13.81-10.85,13.82-36.75,0-20.39-15.1-29.12T130.78,131H113.36q-10,0-12.78,1.58v82.12q8.83,1.77,34.14,1.77Q164,216.5,177.81,205.65Zm11.61,152q14.75-12.14,14.75-39.42,0-23.34-15.21-35t-48.2-11.67H117q-12.66,0-16.38,1.39v91.51q4.19,2.79,17.19,4.06t26,1.28Q174.67,369.79,189.42,357.66Z"/><path class="cls-3" d="M447.14,75.13Q463.64,78,482.68,83q13,3.34,15.56,3.82l-11.61,78.52a124.73,124.73,0,0,0-29.15-16.16q-16.85-6.78-44.48-6.78-27.4,0-49.24,11.93t-34.49,35.1q-12.66,23.17-12.65,55.34,0,34.2,11.38,59.62t33.91,39.49q22.51,14.06,54.81,14.06a142.86,142.86,0,0,0,29.73-3.32,172.17,172.17,0,0,0,28.22-8.42q12.65-5.08,18.69-10l.24,71.4a289.39,289.39,0,0,1-39.84,13.47q-19.86,5.11-47,5.11-57.6,0-98.48-21.52t-62.12-61.27q-21.25-39.75-21.26-93.51,0-56.94,23.69-96.92t64.69-60.35q41-20.39,92.55-20.39Q430.66,72.27,447.14,75.13Z"/></g></svg>