<svg id="Layer_1" data-name="Layer 1" xmlns="http://www.w3.org/2000/svg" viewBox="0 0 512 512"><defs><style>.cls-1{fill:#231f20;}.cls-2{fill:#414042;}</style></defs><title>BC2</title><path class="cls-1" d="M257.59,193.54c-12-9.8-27.79-17.26-46.94-22.27a101.34,101.34,0,0,0,29.08-18.42c16.46-15.2,24.8-34.53,24.8-57.46,0-25.58-11.15-46.75-32.24-61.22-18.58-12.77-44.43-18.72-81.35-18.72H12.38V39.31l4.56.4c19.93,1.72,30.29,3.46,35.24,8.66,5.14,5.4,6.08,16.29,6.08,35.81V288.61c0,19.86-.78,29.58-5.4,34.69-4.92,5.44-16,7.39-35.95,9.27l-4.53.43v23.83H142.79c38.24,0,64.5-5.95,90.58-20.49,33.09-17.95,52.07-48.17,52.07-82.91C285.44,228.72,276.07,208.57,257.59,193.54ZM112.1,68.88c0-15,1.42-19.28,3.55-20.93,4.06-2.79,12.44-4.14,25.61-4.14,41.86,0,65.86,21.21,65.86,58.21,0,41-22.83,59.24-74,59.24h-21ZM152,328.47c-33.15,0-39.86-6.87-39.86-40.88V189.1h19.47c30.77,0,54.28,5.65,69.87,16.78,16.17,11.56,24,28.78,24,52.65C225.47,310.1,187.5,328.47,152,328.47Z"/><path class="cls-2" d="M500.77,399.11l-1.35,4.62c-7.5,25.74-20.75,62.08-28.34,77.76L470,483.71l-2.41.5-4.25.89c-17.55,3.72-54.07,11.45-90.06,11.45-58.34,0-107.2-18.39-141.28-53.18-30.8-31.44-47.76-74.8-47.76-122.1,0-26.24,4.89-50.91,14.54-73.33a165.47,165.47,0,0,1,40.88-57.31c36.12-32.87,85.49-50.24,142.8-50.24,34.68,0,64.1,5.62,83.57,9.34,5.33,1,9.93,1.9,13.53,2.44l3.88.59.35,3.91c1.78,20,5.25,51.21,9.64,78.68l.75,4.63-24.94,5.63-1.34-4.48c-10.87-36.41-23.21-53.37-45.54-62.57l-.2-.08c-12.14-5.61-32.33-9.23-51.43-9.23-76.16,0-123.47,54.15-123.47,141.32,0,96.6,49.27,156.61,128.57,156.61,46.51,0,71.5-18.23,99-72.22l1.95-3.83Z"/></svg>