<svg id="Layer_1" data-name="Layer 1" xmlns="http://www.w3.org/2000/svg" xmlns:xlink="http://www.w3.org/1999/xlink" viewBox="0 0 512 512"><defs><style>.cls-1{fill:none;stroke:#fff;stroke-miterlimit:10;stroke-width:10px;filter:url(#luminosity-invert-noclip);}.cls-2{mask:url(#mask);}.cls-3{fill:#231f20;}</style><filter id="luminosity-invert-noclip" x="15.52" y="96.18" width="480.95" height="322.26" filterUnits="userSpaceOnUse" color-interpolation-filters="sRGB"><feColorMatrix values="-1 0 0 0 1 0 -1 0 0 1 0 0 -1 0 1 0 0 0 1 0" result="invert"/><feFlood flood-color="#fff" result="bg"/><feBlend in="invert" in2="bg"/></filter><mask id="mask" x="15.52" y="96.18" width="480.95" height="322.26" maskUnits="userSpaceOnUse"><path class="cls-1" d="M320,104.08c-13.46,12-76,70.25-74,159.46,1.85,84,59.55,138.28,74,151.16"/></mask></defs><title>bc-icon3</title><g class="cls-2"><path class="cls-3" d="M50.34,125.54l-34.4-5v-21H72.57q14.27,0,36.08-1.68,20.14-1.66,29.79-1.67,57.88,0,82.84,18t25,52.86q0,29.79-17.2,51.17t-47,26.85q40.27-.83,63.34,18.88t23.08,53.69q0,42.39-30,69.22t-99.21,26.85q-15.09,0-28.94-1.26-32.73-1.26-39-1.26H15.52V390.66l34.82-4.2Zm68.38,112h23.07q29.36,0,44.47-16.36t15.1-46.56q0-29.35-15.1-43T134.66,118a298.69,298.69,0,0,0-31,1.67l-8.81.84V237.12Q100.68,237.54,118.72,237.54Zm19.72,153.53q42.36,0,61.45-17.4T219,323.54q0-32.3-16.57-47t-53.49-14.69q-42.78,0-54.11.84v125Q104.45,391.08,138.44,391.07Z"/><path class="cls-3" d="M317.56,395.9q-32.51-19.92-49.29-56t-16.78-84.74q0-47,19.72-83.06t54.11-56q34.4-19.92,77.19-19.92,32.3,0,77.61,10.06L494,108.76l-4.2,75.51h-28.1L451.17,131q-5.88-5-20.34-8.6t-35.45-3.56q-26.85,0-47.82,15.31t-32.93,45.09q-12,29.79-12,71.32,0,39.43,10.49,71.73T345,373.67q21.39,19.09,52.86,19.08,22.23,0,34.19-3.77a57.91,57.91,0,0,0,20.34-10.91L470.05,337l26.43,3.36-10.07,59.57q-8.81.42-26,5.87a287.29,287.29,0,0,1-29.15,7.34q-14.07,2.72-35,2.72Q350.06,415.82,317.56,395.9Z"/></g></svg>